<svg id="visual" viewBox="0 0 960 150" width="960" height="150" xmlns="http://www.w3.org/2000/svg" xmlns:xlink="http://www.w3.org/1999/xlink" version="1.1"><rect x="0" y="0" width="960" height="150" fill="#0f73d7"></rect><path d="M0 108L8 99C16 90 32 72 48 69.2C64 66.3 80 78.7 96 82.2C112 85.7 128 80.3 144 84.8C160 89.3 176 103.7 192 107.5C208 111.3 224 104.7 240 90.5C256 76.3 272 54.7 288 43.7C304 32.7 320 32.3 336 32C352 31.7 368 31.3 384 45.7C400 60 416 89 432 99.7C448 110.3 464 102.7 480 99C496 95.3 512 95.7 528 89.5C544 83.3 560 70.7 576 71.3C592 72 608 86 624 92C640 98 656 96 672 98.8C688 101.7 704 109.3 720 101C736 92.7 752 68.3 768 63C784 57.7 800 71.3 816 72.5C832 73.7 848 62.3 864 55.2C880 48 896 45 912 46.5C928 48 944 54 952 57L960 60L960 0L952 0C944 0 928 0 912 0C896 0 880 0 864 0C848 0 832 0 816 0C800 0 784 0 768 0C752 0 736 0 720 0C704 0 688 0 672 0C656 0 640 0 624 0C608 0 592 0 576 0C560 0 544 0 528 0C512 0 496 0 480 0C464 0 448 0 432 0C416 0 400 0 384 0C368 0 352 0 336 0C320 0 304 0 288 0C272 0 256 0 240 0C224 0 208 0 192 0C176 0 160 0 144 0C128 0 112 0 96 0C80 0 64 0 48 0C32 0 16 0 8 0L0 0Z" fill="#0f73d7"></path><path d="M0 97L8 96.2C16 95.3 32 93.7 48 91.5C64 89.3 80 86.7 96 81.5C112 76.3 128 68.7 144 69C160 69.3 176 77.7 192 84.2C208 90.7 224 95.3 240 91.2C256 87 272 74 288 74.8C304 75.7 320 90.3 336 95.8C352 101.3 368 97.7 384 90.7C400 83.7 416 73.3 432 75.5C448 77.7 464 92.3 480 92C496 91.7 512 76.3 528 71.7C544 67 560 73 576 69.7C592 66.3 608 53.7 624 53.7C640 53.7 656 66.3 672 74.3C688 82.3 704 85.7 720 80.7C736 75.7 752 62.3 768 65C784 67.7 800 86.3 816 88.5C832 90.7 848 76.3 864 67.8C880 59.3 896 56.7 912 52.3C928 48 944 42 952 39L960 36L960 0L952 0C944 0 928 0 912 0C896 0 880 0 864 0C848 0 832 0 816 0C800 0 784 0 768 0C752 0 736 0 720 0C704 0 688 0 672 0C656 0 640 0 624 0C608 0 592 0 576 0C560 0 544 0 528 0C512 0 496 0 480 0C464 0 448 0 432 0C416 0 400 0 384 0C368 0 352 0 336 0C320 0 304 0 288 0C272 0 256 0 240 0C224 0 208 0 192 0C176 0 160 0 144 0C128 0 112 0 96 0C80 0 64 0 48 0C32 0 16 0 8 0L0 0Z" fill="#4670db"></path><path d="M0 74L8 75C16 76 32 78 48 79.3C64 80.7 80 81.3 96 72.8C112 64.3 128 46.7 144 41.5C160 36.3 176 43.7 192 46.5C208 49.3 224 47.7 240 49.7C256 51.7 272 57.3 288 59.2C304 61 320 59 336 57.7C352 56.3 368 55.7 384 59C400 62.3 416 69.7 432 73.8C448 78 464 79 480 72.8C496 66.7 512 53.3 528 51.8C544 50.3 560 60.7 576 62.8C592 65 608 59 624 57.5C640 56 656 59 672 58.7C688 58.3 704 54.7 720 54.8C736 55 752 59 768 60.3C784 61.7 800 60.3 816 61C832 61.7 848 64.3 864 69.8C880 75.3 896 83.7 912 87.5C928 91.3 944 90.7 952 90.3L960 90L960 0L952 0C944 0 928 0 912 0C896 0 880 0 864 0C848 0 832 0 816 0C800 0 784 0 768 0C752 0 736 0 720 0C704 0 688 0 672 0C656 0 640 0 624 0C608 0 592 0 576 0C560 0 544 0 528 0C512 0 496 0 480 0C464 0 448 0 432 0C416 0 400 0 384 0C368 0 352 0 336 0C320 0 304 0 288 0C272 0 256 0 240 0C224 0 208 0 192 0C176 0 160 0 144 0C128 0 112 0 96 0C80 0 64 0 48 0C32 0 16 0 8 0L0 0Z" fill="#676bdc"></path><path d="M0 36L8 43.5C16 51 32 66 48 66C64 66 80 51 96 49.7C112 48.3 128 60.7 144 64.8C160 69 176 65 192 59C208 53 224 45 240 45.5C256 46 272 55 288 57.3C304 59.7 320 55.3 336 49.3C352 43.3 368 35.7 384 39.7C400 43.7 416 59.3 432 67.5C448 75.7 464 76.3 480 68.5C496 60.7 512 44.3 528 38.7C544 33 560 38 576 46.5C592 55 608 67 624 73C640 79 656 79 672 70C688 61 704 43 720 34.8C736 26.7 752 28.3 768 32C784 35.7 800 41.3 816 46.7C832 52 848 57 864 57.8C880 58.7 896 55.3 912 51.3C928 47.3 944 42.7 952 40.3L960 38L960 0L952 0C944 0 928 0 912 0C896 0 880 0 864 0C848 0 832 0 816 0C800 0 784 0 768 0C752 0 736 0 720 0C704 0 688 0 672 0C656 0 640 0 624 0C608 0 592 0 576 0C560 0 544 0 528 0C512 0 496 0 480 0C464 0 448 0 432 0C416 0 400 0 384 0C368 0 352 0 336 0C320 0 304 0 288 0C272 0 256 0 240 0C224 0 208 0 192 0C176 0 160 0 144 0C128 0 112 0 96 0C80 0 64 0 48 0C32 0 16 0 8 0L0 0Z" fill="#8365dc"></path><path d="M0 26L8 26.3C16 26.7 32 27.3 48 33.2C64 39 80 50 96 52.2C112 54.3 128 47.7 144 42.3C160 37 176 33 192 35C208 37 224 45 240 49.3C256 53.7 272 54.3 288 49.3C304 44.3 320 33.7 336 33C352 32.3 368 41.7 384 46.7C400 51.7 416 52.3 432 47.5C448 42.7 464 32.3 480 30C496 27.7 512 33.3 528 38.2C544 43 560 47 576 47.8C592 48.7 608 46.3 624 42.2C640 38 656 32 672 31.8C688 31.7 704 37.3 720 38.3C736 39.3 752 35.7 768 37C784 38.3 800 44.7 816 46.2C832 47.7 848 44.3 864 40.7C880 37 896 33 912 35.2C928 37.3 944 45.7 952 49.8L960 54L960 0L952 0C944 0 928 0 912 0C896 0 880 0 864 0C848 0 832 0 816 0C800 0 784 0 768 0C752 0 736 0 720 0C704 0 688 0 672 0C656 0 640 0 624 0C608 0 592 0 576 0C560 0 544 0 528 0C512 0 496 0 480 0C464 0 448 0 432 0C416 0 400 0 384 0C368 0 352 0 336 0C320 0 304 0 288 0C272 0 256 0 240 0C224 0 208 0 192 0C176 0 160 0 144 0C128 0 112 0 96 0C80 0 64 0 48 0C32 0 16 0 8 0L0 0Z" fill="#9c5ed8"></path><path d="M0 32L8 34.3C16 36.7 32 41.3 48 41C64 40.7 80 35.3 96 32.3C112 29.3 128 28.7 144 28.7C160 28.7 176 29.3 192 33.3C208 37.3 224 44.7 240 42.5C256 40.3 272 28.7 288 27.3C304 26 320 35 336 39.5C352 44 368 44 384 42.7C400 41.3 416 38.7 432 36.2C448 33.7 464 31.3 480 34.8C496 38.3 512 47.7 528 45.7C544 43.7 560 30.3 576 25.5C592 20.7 608 24.3 624 28.7C640 33 656 38 672 41C688 44 704 45 720 40.3C736 35.7 752 25.3 768 22.2C784 19 800 23 816 30C832 37 848 47 864 48.3C880 49.7 896 42.3 912 38.7C928 35 944 35 952 35L960 35L960 0L952 0C944 0 928 0 912 0C896 0 880 0 864 0C848 0 832 0 816 0C800 0 784 0 768 0C752 0 736 0 720 0C704 0 688 0 672 0C656 0 640 0 624 0C608 0 592 0 576 0C560 0 544 0 528 0C512 0 496 0 480 0C464 0 448 0 432 0C416 0 400 0 384 0C368 0 352 0 336 0C320 0 304 0 288 0C272 0 256 0 240 0C224 0 208 0 192 0C176 0 160 0 144 0C128 0 112 0 96 0C80 0 64 0 48 0C32 0 16 0 8 0L0 0Z" fill="#b455d2"></path><path d="M0 14L8 14.5C16 15 32 16 48 18.3C64 20.7 80 24.3 96 26.8C112 29.3 128 30.7 144 33C160 35.3 176 38.7 192 36.8C208 35 224 28 240 24.8C256 21.7 272 22.3 288 23.3C304 24.3 320 25.7 336 26.7C352 27.7 368 28.3 384 29.8C400 31.3 416 33.7 432 31.3C448 29 464 22 480 23C496 24 512 33 528 33.3C544 33.7 560 25.3 576 23.5C592 21.7 608 26.3 624 30.5C640 34.7 656 38.3 672 36.2C688 34 704 26 720 26.3C736 26.7 752 35.3 768 37.7C784 40 800 36 816 33.5C832 31 848 30 864 29.8C880 29.7 896 30.3 912 28.8C928 27.3 944 23.7 952 21.8L960 20L960 0L952 0C944 0 928 0 912 0C896 0 880 0 864 0C848 0 832 0 816 0C800 0 784 0 768 0C752 0 736 0 720 0C704 0 688 0 672 0C656 0 640 0 624 0C608 0 592 0 576 0C560 0 544 0 528 0C512 0 496 0 480 0C464 0 448 0 432 0C416 0 400 0 384 0C368 0 352 0 336 0C320 0 304 0 288 0C272 0 256 0 240 0C224 0 208 0 192 0C176 0 160 0 144 0C128 0 112 0 96 0C80 0 64 0 48 0C32 0 16 0 8 0L0 0Z" fill="#ca4ac9"></path><path d="M0 13L8 16C16 19 32 25 48 27C64 29 80 27 96 27.5C112 28 128 31 144 31.5C160 32 176 30 192 27C208 24 224 20 240 20.5C256 21 272 26 288 29.2C304 32.3 320 33.7 336 31.3C352 29 368 23 384 20.5C400 18 416 19 432 19.2C448 19.3 464 18.7 480 16.8C496 15 512 12 528 12C544 12 560 15 576 16.3C592 17.7 608 17.3 624 17.2C640 17 656 17 672 17.3C688 17.7 704 18.3 720 17C736 15.7 752 12.3 768 14.2C784 16 800 23 816 23.2C832 23.3 848 16.7 864 13.8C880 11 896 12 912 15.8C928 19.7 944 26.3 952 29.7L960 33L960 0L952 0C944 0 928 0 912 0C896 0 880 0 864 0C848 0 832 0 816 0C800 0 784 0 768 0C752 0 736 0 720 0C704 0 688 0 672 0C656 0 640 0 624 0C608 0 592 0 576 0C560 0 544 0 528 0C512 0 496 0 480 0C464 0 448 0 432 0C416 0 400 0 384 0C368 0 352 0 336 0C320 0 304 0 288 0C272 0 256 0 240 0C224 0 208 0 192 0C176 0 160 0 144 0C128 0 112 0 96 0C80 0 64 0 48 0C32 0 16 0 8 0L0 0Z" fill="#dd3dbe"></path><path d="M0 20L8 20C16 20 32 20 48 17.7C64 15.3 80 10.7 96 8.5C112 6.3 128 6.7 144 7C160 7.3 176 7.7 192 9.3C208 11 224 14 240 15.8C256 17.7 272 18.3 288 17.7C304 17 320 15 336 14.5C352 14 368 15 384 15C400 15 416 14 432 12.3C448 10.7 464 8.3 480 7.2C496 6 512 6 528 6.5C544 7 560 8 576 8.7C592 9.3 608 9.7 624 9.8C640 10 656 10 672 10.7C688 11.3 704 12.7 720 14.3C736 16 752 18 768 16.5C784 15 800 10 816 9.3C832 8.7 848 12.3 864 14.5C880 16.7 896 17.3 912 16.5C928 15.7 944 13.3 952 12.2L960 11L960 0L952 0C944 0 928 0 912 0C896 0 880 0 864 0C848 0 832 0 816 0C800 0 784 0 768 0C752 0 736 0 720 0C704 0 688 0 672 0C656 0 640 0 624 0C608 0 592 0 576 0C560 0 544 0 528 0C512 0 496 0 480 0C464 0 448 0 432 0C416 0 400 0 384 0C368 0 352 0 336 0C320 0 304 0 288 0C272 0 256 0 240 0C224 0 208 0 192 0C176 0 160 0 144 0C128 0 112 0 96 0C80 0 64 0 48 0C32 0 16 0 8 0L0 0Z" fill="#ef2cb1"></path></svg>