<svg id="visual" viewBox="0 0 960 150" width="960" height="150" xmlns="http://www.w3.org/2000/svg" xmlns:xlink="http://www.w3.org/1999/xlink" version="1.1"><rect x="0" y="0" width="960" height="150" fill="#ef2cb1"></rect><path d="M0 109L8 98.3C16 87.7 32 66.3 48 52.8C64 39.3 80 33.7 96 37.7C112 41.7 128 55.3 144 59.5C160 63.7 176 58.3 192 63.3C208 68.3 224 83.7 240 89C256 94.3 272 89.7 288 85.7C304 81.7 320 78.3 336 77C352 75.7 368 76.3 384 77.8C400 79.3 416 81.7 432 83.2C448 84.7 464 85.3 480 86.5C496 87.7 512 89.3 528 88.8C544 88.3 560 85.7 576 89.2C592 92.7 608 102.3 624 107.5C640 112.7 656 113.3 672 99.5C688 85.7 704 57.3 720 59C736 60.7 752 92.3 768 93.5C784 94.7 800 65.3 816 54.2C832 43 848 50 864 60.3C880 70.7 896 84.3 912 82.3C928 80.3 944 62.7 952 53.8L960 45L960 0L952 0C944 0 928 0 912 0C896 0 880 0 864 0C848 0 832 0 816 0C800 0 784 0 768 0C752 0 736 0 720 0C704 0 688 0 672 0C656 0 640 0 624 0C608 0 592 0 576 0C560 0 544 0 528 0C512 0 496 0 480 0C464 0 448 0 432 0C416 0 400 0 384 0C368 0 352 0 336 0C320 0 304 0 288 0C272 0 256 0 240 0C224 0 208 0 192 0C176 0 160 0 144 0C128 0 112 0 96 0C80 0 64 0 48 0C32 0 16 0 8 0L0 0Z" fill="#ef2cb1"></path><path d="M0 26L8 31.3C16 36.7 32 47.3 48 55C64 62.7 80 67.3 96 71.2C112 75 128 78 144 70.2C160 62.3 176 43.7 192 42.8C208 42 224 59 240 68C256 77 272 78 288 81.2C304 84.3 320 89.7 336 89C352 88.3 368 81.7 384 76.5C400 71.3 416 67.7 432 68.2C448 68.7 464 73.3 480 71C496 68.7 512 59.3 528 60.5C544 61.7 560 73.3 576 83.8C592 94.3 608 103.7 624 106.5C640 109.3 656 105.7 672 90.8C688 76 704 50 720 43.5C736 37 752 50 768 55.5C784 61 800 59 816 67.5C832 76 848 95 864 104.2C880 113.3 896 112.7 912 111.2C928 109.7 944 107.3 952 106.2L960 105L960 0L952 0C944 0 928 0 912 0C896 0 880 0 864 0C848 0 832 0 816 0C800 0 784 0 768 0C752 0 736 0 720 0C704 0 688 0 672 0C656 0 640 0 624 0C608 0 592 0 576 0C560 0 544 0 528 0C512 0 496 0 480 0C464 0 448 0 432 0C416 0 400 0 384 0C368 0 352 0 336 0C320 0 304 0 288 0C272 0 256 0 240 0C224 0 208 0 192 0C176 0 160 0 144 0C128 0 112 0 96 0C80 0 64 0 48 0C32 0 16 0 8 0L0 0Z" fill="#df3bbd"></path><path d="M0 72L8 65.7C16 59.3 32 46.7 48 46.3C64 46 80 58 96 58.2C112 58.3 128 46.7 144 39C160 31.3 176 27.7 192 31.8C208 36 224 48 240 49.8C256 51.7 272 43.3 288 42.3C304 41.3 320 47.7 336 58C352 68.3 368 82.7 384 80.8C400 79 416 61 432 60C448 59 464 75 480 71.5C496 68 512 45 528 39.5C544 34 560 46 576 58.2C592 70.3 608 82.7 624 89.5C640 96.3 656 97.7 672 88.7C688 79.7 704 60.3 720 51.3C736 42.3 752 43.7 768 42.8C784 42 800 39 816 41.8C832 44.7 848 53.3 864 53C880 52.7 896 43.3 912 36.3C928 29.3 944 24.7 952 22.3L960 20L960 0L952 0C944 0 928 0 912 0C896 0 880 0 864 0C848 0 832 0 816 0C800 0 784 0 768 0C752 0 736 0 720 0C704 0 688 0 672 0C656 0 640 0 624 0C608 0 592 0 576 0C560 0 544 0 528 0C512 0 496 0 480 0C464 0 448 0 432 0C416 0 400 0 384 0C368 0 352 0 336 0C320 0 304 0 288 0C272 0 256 0 240 0C224 0 208 0 192 0C176 0 160 0 144 0C128 0 112 0 96 0C80 0 64 0 48 0C32 0 16 0 8 0L0 0Z" fill="#ce47c7"></path><path d="M0 45L8 47C16 49 32 53 48 54.8C64 56.7 80 56.3 96 50.5C112 44.7 128 33.3 144 35.3C160 37.3 176 52.7 192 56.5C208 60.3 224 52.7 240 48.2C256 43.7 272 42.3 288 39.3C304 36.3 320 31.7 336 35C352 38.3 368 49.7 384 58.2C400 66.7 416 72.3 432 71.2C448 70 464 62 480 55.3C496 48.7 512 43.3 528 40.3C544 37.3 560 36.7 576 37.3C592 38 608 40 624 39.7C640 39.3 656 36.7 672 34.2C688 31.7 704 29.3 720 36.2C736 43 752 59 768 68.2C784 77.3 800 79.7 816 81.8C832 84 848 86 864 77.3C880 68.7 896 49.3 912 38C928 26.7 944 23.3 952 21.7L960 20L960 0L952 0C944 0 928 0 912 0C896 0 880 0 864 0C848 0 832 0 816 0C800 0 784 0 768 0C752 0 736 0 720 0C704 0 688 0 672 0C656 0 640 0 624 0C608 0 592 0 576 0C560 0 544 0 528 0C512 0 496 0 480 0C464 0 448 0 432 0C416 0 400 0 384 0C368 0 352 0 336 0C320 0 304 0 288 0C272 0 256 0 240 0C224 0 208 0 192 0C176 0 160 0 144 0C128 0 112 0 96 0C80 0 64 0 48 0C32 0 16 0 8 0L0 0Z" fill="#bb52cf"></path><path d="M0 61L8 60.5C16 60 32 59 48 56.3C64 53.7 80 49.3 96 48.5C112 47.7 128 50.3 144 55.5C160 60.7 176 68.3 192 67.3C208 66.3 224 56.7 240 55.8C256 55 272 63 288 67.3C304 71.7 320 72.3 336 71.8C352 71.3 368 69.7 384 67.3C400 65 416 62 432 63.5C448 65 464 71 480 66C496 61 512 45 528 39.8C544 34.7 560 40.3 576 37.8C592 35.3 608 24.7 624 29.5C640 34.3 656 54.7 672 59C688 63.3 704 51.7 720 51.8C736 52 752 64 768 62.7C784 61.3 800 46.7 816 47.2C832 47.7 848 63.3 864 64.2C880 65 896 51 912 40.2C928 29.3 944 21.7 952 17.8L960 14L960 0L952 0C944 0 928 0 912 0C896 0 880 0 864 0C848 0 832 0 816 0C800 0 784 0 768 0C752 0 736 0 720 0C704 0 688 0 672 0C656 0 640 0 624 0C608 0 592 0 576 0C560 0 544 0 528 0C512 0 496 0 480 0C464 0 448 0 432 0C416 0 400 0 384 0C368 0 352 0 336 0C320 0 304 0 288 0C272 0 256 0 240 0C224 0 208 0 192 0C176 0 160 0 144 0C128 0 112 0 96 0C80 0 64 0 48 0C32 0 16 0 8 0L0 0Z" fill="#a75ad6"></path><path d="M0 23L8 30.2C16 37.3 32 51.7 48 57.2C64 62.7 80 59.3 96 59C112 58.7 128 61.3 144 57.7C160 54 176 44 192 41.2C208 38.3 224 42.7 240 41.7C256 40.7 272 34.3 288 34.2C304 34 320 40 336 38.3C352 36.7 368 27.3 384 26.2C400 25 416 32 432 35.8C448 39.7 464 40.3 480 39.7C496 39 512 37 528 40.5C544 44 560 53 576 56.2C592 59.3 608 56.7 624 56.5C640 56.3 656 58.7 672 60.8C688 63 704 65 720 65.5C736 66 752 65 768 59.3C784 53.7 800 43.3 816 36.2C832 29 848 25 864 24C880 23 896 25 912 24.8C928 24.7 944 22.3 952 21.2L960 20L960 0L952 0C944 0 928 0 912 0C896 0 880 0 864 0C848 0 832 0 816 0C800 0 784 0 768 0C752 0 736 0 720 0C704 0 688 0 672 0C656 0 640 0 624 0C608 0 592 0 576 0C560 0 544 0 528 0C512 0 496 0 480 0C464 0 448 0 432 0C416 0 400 0 384 0C368 0 352 0 336 0C320 0 304 0 288 0C272 0 256 0 240 0C224 0 208 0 192 0C176 0 160 0 144 0C128 0 112 0 96 0C80 0 64 0 48 0C32 0 16 0 8 0L0 0Z" fill="#9161da"></path><path d="M0 21L8 19.7C16 18.3 32 15.7 48 17.7C64 19.7 80 26.3 96 26.7C112 27 128 21 144 23.3C160 25.7 176 36.3 192 37.2C208 38 224 29 240 25.5C256 22 272 24 288 25.7C304 27.3 320 28.7 336 30.5C352 32.3 368 34.7 384 38.5C400 42.3 416 47.7 432 48.3C448 49 464 45 480 39.5C496 34 512 27 528 26.2C544 25.3 560 30.7 576 36.3C592 42 608 48 624 43.8C640 39.7 656 25.3 672 23.7C688 22 704 33 720 34.7C736 36.3 752 28.7 768 28C784 27.3 800 33.7 816 36C832 38.3 848 36.7 864 38.5C880 40.3 896 45.7 912 47C928 48.3 944 45.7 952 44.3L960 43L960 0L952 0C944 0 928 0 912 0C896 0 880 0 864 0C848 0 832 0 816 0C800 0 784 0 768 0C752 0 736 0 720 0C704 0 688 0 672 0C656 0 640 0 624 0C608 0 592 0 576 0C560 0 544 0 528 0C512 0 496 0 480 0C464 0 448 0 432 0C416 0 400 0 384 0C368 0 352 0 336 0C320 0 304 0 288 0C272 0 256 0 240 0C224 0 208 0 192 0C176 0 160 0 144 0C128 0 112 0 96 0C80 0 64 0 48 0C32 0 16 0 8 0L0 0Z" fill="#7a68dc"></path><path d="M0 23L8 20.5C16 18 32 13 48 11.7C64 10.3 80 12.7 96 18.8C112 25 128 35 144 39.8C160 44.7 176 44.3 192 39.3C208 34.3 224 24.7 240 24.5C256 24.3 272 33.7 288 33C304 32.3 320 21.7 336 21.7C352 21.7 368 32.3 384 37.7C400 43 416 43 432 40.5C448 38 464 33 480 31C496 29 512 30 528 29C544 28 560 25 576 26.8C592 28.7 608 35.3 624 34C640 32.7 656 23.3 672 19.5C688 15.7 704 17.3 720 18.7C736 20 752 21 768 20.5C784 20 800 18 816 18.7C832 19.3 848 22.7 864 25.7C880 28.7 896 31.3 912 33.3C928 35.3 944 36.7 952 37.3L960 38L960 0L952 0C944 0 928 0 912 0C896 0 880 0 864 0C848 0 832 0 816 0C800 0 784 0 768 0C752 0 736 0 720 0C704 0 688 0 672 0C656 0 640 0 624 0C608 0 592 0 576 0C560 0 544 0 528 0C512 0 496 0 480 0C464 0 448 0 432 0C416 0 400 0 384 0C368 0 352 0 336 0C320 0 304 0 288 0C272 0 256 0 240 0C224 0 208 0 192 0C176 0 160 0 144 0C128 0 112 0 96 0C80 0 64 0 48 0C32 0 16 0 8 0L0 0Z" fill="#606cdc"></path><path d="M0 13L8 16.2C16 19.3 32 25.7 48 24.7C64 23.7 80 15.3 96 13C112 10.7 128 14.3 144 16.7C160 19 176 20 192 21.3C208 22.7 224 24.3 240 24.3C256 24.3 272 22.7 288 22.2C304 21.7 320 22.3 336 21.3C352 20.3 368 17.7 384 19.2C400 20.7 416 26.3 432 28.8C448 31.3 464 30.7 480 27.2C496 23.7 512 17.3 528 14.3C544 11.3 560 11.7 576 12.8C592 14 608 16 624 19.5C640 23 656 28 672 27C688 26 704 19 720 17.3C736 15.7 752 19.3 768 20C784 20.7 800 18.3 816 16.5C832 14.7 848 13.3 864 13.5C880 13.7 896 15.3 912 16.7C928 18 944 19 952 19.5L960 20L960 0L952 0C944 0 928 0 912 0C896 0 880 0 864 0C848 0 832 0 816 0C800 0 784 0 768 0C752 0 736 0 720 0C704 0 688 0 672 0C656 0 640 0 624 0C608 0 592 0 576 0C560 0 544 0 528 0C512 0 496 0 480 0C464 0 448 0 432 0C416 0 400 0 384 0C368 0 352 0 336 0C320 0 304 0 288 0C272 0 256 0 240 0C224 0 208 0 192 0C176 0 160 0 144 0C128 0 112 0 96 0C80 0 64 0 48 0C32 0 16 0 8 0L0 0Z" fill="#4270db"></path><path d="M0 9L8 8.3C16 7.7 32 6.3 48 5.5C64 4.7 80 4.3 96 5C112 5.7 128 7.3 144 9C160 10.7 176 12.3 192 13.5C208 14.7 224 15.3 240 16C256 16.7 272 17.3 288 15.3C304 13.3 320 8.7 336 8.5C352 8.3 368 12.7 384 15C400 17.3 416 17.7 432 16.8C448 16 464 14 480 13.8C496 13.7 512 15.3 528 14.8C544 14.3 560 11.7 576 11.8C592 12 608 15 624 16.8C640 18.7 656 19.3 672 18C688 16.7 704 13.3 720 13.5C736 13.7 752 17.3 768 17.3C784 17.3 800 13.7 816 12.3C832 11 848 12 864 13.3C880 14.7 896 16.3 912 16C928 15.7 944 13.3 952 12.2L960 11L960 0L952 0C944 0 928 0 912 0C896 0 880 0 864 0C848 0 832 0 816 0C800 0 784 0 768 0C752 0 736 0 720 0C704 0 688 0 672 0C656 0 640 0 624 0C608 0 592 0 576 0C560 0 544 0 528 0C512 0 496 0 480 0C464 0 448 0 432 0C416 0 400 0 384 0C368 0 352 0 336 0C320 0 304 0 288 0C272 0 256 0 240 0C224 0 208 0 192 0C176 0 160 0 144 0C128 0 112 0 96 0C80 0 64 0 48 0C32 0 16 0 8 0L0 0Z" fill="#0f73d7"></path></svg>